<mxfile host="Electron" modified="2023-04-30T12:05:34.957Z" agent="Mozilla/5.0 (Windows NT 10.0; Win64; x64) AppleWebKit/537.36 (KHTML, like Gecko) draw.io/21.2.1 Chrome/112.0.5615.87 Electron/24.1.2 Safari/537.36" etag="0jxyj70LGCjYLZRIVToB" version="21.2.1" type="device">
  <diagram name="第 1 页" id="hSRQ57T09YJk9QetQUsI">
    <mxGraphModel dx="898" dy="579" grid="1" gridSize="10" guides="1" tooltips="1" connect="1" arrows="1" fold="1" page="1" pageScale="1" pageWidth="827" pageHeight="1169" math="0" shadow="0">
      <root>
        <mxCell id="0" />
        <mxCell id="1" parent="0" />
        <mxCell id="7joMMJl2bfjmAcuTHPdV-1" value="" style="fontColor=#0066CC;verticalAlign=top;verticalLabelPosition=bottom;labelPosition=center;align=center;html=1;outlineConnect=0;fillColor=#CCCCCC;strokeColor=#6881B3;gradientColor=none;gradientDirection=north;strokeWidth=2;shape=mxgraph.networks.pc;" vertex="1" parent="1">
          <mxGeometry x="170" y="200.5" width="100" height="70" as="geometry" />
        </mxCell>
        <mxCell id="7joMMJl2bfjmAcuTHPdV-2" value="" style="fontColor=#0066CC;verticalAlign=top;verticalLabelPosition=bottom;labelPosition=center;align=center;html=1;outlineConnect=0;fillColor=#CCCCCC;strokeColor=#6881B3;gradientColor=none;gradientDirection=north;strokeWidth=2;shape=mxgraph.networks.web_server;" vertex="1" parent="1">
          <mxGeometry x="520" y="183" width="105" height="105" as="geometry" />
        </mxCell>
        <mxCell id="7joMMJl2bfjmAcuTHPdV-4" value="" style="endArrow=classic;startArrow=classic;html=1;rounded=0;exitX=1;exitY=0.5;exitDx=0;exitDy=0;exitPerimeter=0;entryX=0;entryY=0.5;entryDx=0;entryDy=0;entryPerimeter=0;strokeWidth=3;strokeColor=#0066CC;" edge="1" parent="1" source="7joMMJl2bfjmAcuTHPdV-1" target="7joMMJl2bfjmAcuTHPdV-2">
          <mxGeometry width="50" height="50" relative="1" as="geometry">
            <mxPoint x="390" y="330" as="sourcePoint" />
            <mxPoint x="440" y="280" as="targetPoint" />
          </mxGeometry>
        </mxCell>
        <mxCell id="7joMMJl2bfjmAcuTHPdV-6" value="&lt;font style=&quot;font-size: 18px;&quot;&gt;数据传输与交换&lt;/font&gt;" style="rounded=0;whiteSpace=wrap;html=1;fontStyle=1;labelBackgroundColor=none;fillColor=none;strokeColor=none;" vertex="1" parent="1">
          <mxGeometry x="324" y="183" width="150" height="60" as="geometry" />
        </mxCell>
        <mxCell id="7joMMJl2bfjmAcuTHPdV-7" value="&lt;font style=&quot;font-size: 18px;&quot;&gt;XML&lt;/font&gt;" style="rounded=0;whiteSpace=wrap;html=1;fontStyle=1;labelBackgroundColor=none;fillColor=none;strokeColor=none;" vertex="1" parent="1">
          <mxGeometry x="324" y="228" width="150" height="60" as="geometry" />
        </mxCell>
        <mxCell id="7joMMJl2bfjmAcuTHPdV-8" value="&lt;font style=&quot;font-size: 18px;&quot;&gt;JSON&lt;br&gt;&lt;/font&gt;" style="rounded=0;whiteSpace=wrap;html=1;fontStyle=1;labelBackgroundColor=none;fillColor=none;strokeColor=none;" vertex="1" parent="1">
          <mxGeometry x="322" y="254" width="150" height="60" as="geometry" />
        </mxCell>
      </root>
    </mxGraphModel>
  </diagram>
</mxfile>
